<svg viewBox="0 0 1920 455.03" xmlns="http://www.w3.org/2000/svg" data-name="Layer 1" id="Layer_1">
  <defs>
    <style>
      .cls-1 {
        fill: #0d0c0d;
      }
    </style>
  </defs>
  <path d="M475.3,335.83c-22.24-176.92-163.56-181.1-211.21-174.47-59.08,8.21-180.38,36.77-155.82,219.61,14.39,121.56,109.11,56.86,109.11,56.86,0,0,40.79-21.09,76.43-25.46l8.96-2.07c35.62-4.37,80.3,5.89,80.3,5.89,0,0,107.75,41.04,92.23-80.36ZM181.88,270.93c-3.2,26.94-1.15,43.14-20.52,43.83-47.12,1.67,2.72-85.71,28.18-82.2,15.48,2.13-4.82,14.54-7.66,38.37Z" class="cls-1"></path>
  <path d="M122.54,183.41c-8.37-33.28-42.16-53.48-75.48-45.12C13.74,146.65-6.48,180.4,1.89,213.68c8.37,33.28,42.16,53.48,75.48,45.12,33.32-8.36,53.54-42.11,45.17-75.4ZM33.11,174.14c-2.34,13.49-1.74,21.71-11.52,21.54-23.79-.43,3.68-43.11,16.42-40.66,7.74,1.49-2.82,7.19-4.89,19.13Z" class="cls-1"></path>
  <path d="M552.54,160.16c-8.37-33.28-42.16-53.48-75.48-45.12-33.32,8.36-53.54,42.11-45.17,75.39,8.37,33.28,42.16,53.48,75.48,45.12,33.32-8.36,53.54-42.12,45.18-75.4ZM463.12,150.9c-2.34,13.49-1.74,21.7-11.52,21.53-23.79-.42,3.68-43.11,16.42-40.66,7.74,1.49-2.82,7.19-4.89,19.13Z" class="cls-1"></path>
  <path d="M427.69,57.4c-10.22-40.64-51.49-65.31-92.18-55.1-40.69,10.21-65.39,51.43-55.17,92.07,10.22,40.65,51.49,65.32,92.18,55.11,40.69-10.21,65.39-51.43,55.17-92.08ZM318.48,46.1c-2.85,16.47-2.13,26.51-14.07,26.29-29.05-.52,4.5-52.65,20.05-49.65,9.46,1.82-3.44,8.78-5.97,23.36Z" class="cls-1"></path>
  <path d="M254.68,71.33c-10.22-40.64-51.49-65.31-92.18-55.1-40.69,10.21-65.39,51.43-55.17,92.07,10.22,40.65,51.49,65.32,92.18,55.11,40.69-10.21,65.38-51.43,55.17-92.08ZM145.47,60.02c-2.86,16.47-2.13,26.51-14.07,26.3-29.05-.52,4.49-52.65,20.05-49.66,9.45,1.82-3.45,8.79-5.98,23.36Z" class="cls-1"></path>
  <path d="M1919.99,181.77c.41,17.82-14.82,33.04-32.53,32.62-17.7,0-32.25-14.39-32.25-32.08-.41-17.68,14.82-32.9,32.66-32.63,17.71,0,32.12,14.39,32.12,32.08ZM1912.99,182.04c0-14.26-11.12-25.63-25.39-25.63s-25.39,11.51-25.39,25.63,11.12,25.64,25.39,25.64,25.39-11.52,25.39-25.64ZM1882.11,196.99c0,1.23-.41,1.92-1.92,1.92h-4.39c-1.24,0-1.92-.69-1.92-1.92v-30.16c0-1.51.69-1.92,1.92-1.92h11.8c9.33,0,14.55,3.7,14.55,11.24,0,4.52-2.06,7.81-6.31,9.87l7.41,10.83c.41.41.55.82.55,1.24,0,.55-.55.82-1.51.82h-5.49c-1.51,0-1.92-.14-2.88-1.65l-5.21-8.22c-.69-.96-.96-1.1-1.92-1.1h-3.98c-.41,0-.69.27-.69.82v8.22ZM1882.11,180.26c0,.69.41,1.1,1.1,1.1h4.26c3.84,0,6.18-1.65,6.18-4.8s-2.06-4.52-6.18-4.52h-4.26c-.69,0-1.1.14-1.1,1.1v7.13Z" class="cls-1"></path>
  <path d="M800.08,247.67v16.98c0,50.52-38.43,83.21-95.03,83.21h-63.87c-18.18,0-31.68-11.04-31.68-25.9V125.41c0-49.25,37.39-81.93,92.43-81.93s92.95,32.69,92.95,81.93v15.71c.52,20.38-8.83,37.78-24.41,50.95,18.69,14.01,29.6,33.11,29.6,55.61ZM685.83,168.29h17.14c9.35,0,15.58-7.22,15.58-19.1v-30.14c0-10.61-6.75-17.41-17.13-17.41s-15.58,6.79-15.58,17.41v49.24ZM722.7,245.55c0-14.01-7.27-22.07-19.73-22.07h-17.14v67.92h17.14c12.46,0,19.73-8.07,19.73-21.23v-24.62Z" class="cls-1"></path>
  <path d="M873.81,133.48c6.75,0,10.39,2.97,10.39,8.49v139.24c0,8.92,5.71,14.43,15.58,14.43s15.58-5.52,15.58-14.43v-139.24c0-5.52,3.63-8.49,10.38-8.49h50.89c6.75,0,10.39,2.97,10.39,8.49v135.42c0,44.15-34.79,73.45-87.24,73.45s-87.24-29.29-87.24-73.45v-135.42c0-5.52,3.64-8.49,10.38-8.49h50.89Z" class="cls-1"></path>
  <path d="M1182.26,201.82v75.57c0,44.15-35.31,73.45-88.28,73.45s-88.28-29.29-88.28-73.45V57.06c0-5.52,3.64-8.49,10.39-8.49h50.89c6.75,0,10.38,2.97,10.38,8.49v77.69c7.27-4.25,17.14-6.37,31.16-6.37,45.18,0,73.74,29.29,73.74,73.44ZM1110.6,198c0-8.92-6.23-14.43-16.62-14.43s-16.62,5.52-16.62,14.43v83.21c0,8.92,6.23,14.43,16.62,14.43s16.62-5.52,16.62-14.43v-83.21Z" class="cls-1"></path>
  <path d="M1370.24,201.82v75.57c0,44.15-35.31,73.45-88.28,73.45s-88.28-29.29-88.28-73.45V57.06c0-5.52,3.64-8.49,10.39-8.49h50.89c6.75,0,10.38,2.97,10.38,8.49v77.69c7.27-4.25,17.14-6.37,31.16-6.37,45.18,0,73.74,29.29,73.74,73.44ZM1298.58,198c0-8.92-6.23-14.43-16.62-14.43s-16.62,5.52-16.62,14.43v83.21c0,8.92,6.23,14.43,16.62,14.43s16.62-5.52,16.62-14.43v-83.21Z" class="cls-1"></path>
  <path d="M1388.93,337.25V57.06c0-5.52,3.64-8.49,10.38-8.49h50.89c6.75,0,10.39,2.97,10.39,8.49v280.19c0,5.52-3.63,8.49-10.39,8.49h-50.89c-6.75,0-10.38-2.97-10.38-8.49Z" class="cls-1"></path>
  <path d="M1475.24,277.39v-78.11c1.56-42.88,36.35-70.9,88.28-70.9,50.37-.85,88.8,27.6,88.8,70.9,0,40.33-35.31,67.08-87.24,67.08h-17.65v14.86c0,8.92,5.19,14.43,15.06,14.43,7.27,0,11.94-3.4,14.54-9.34,1.56-5.52,4.67-8.07,10.9-8.07h51.41c6.75,0,10.39,2.97,9.87,8.49-4.15,38.63-38.43,64.11-87.76,64.11s-86.2-29.29-86.2-73.45ZM1565.08,214.99c9.35,0,15.06-4.67,15.06-14.43,0-11.89-6.23-16.98-16.62-16.98s-16.1,5.52-16.1,14.43v16.98h17.65Z" class="cls-1"></path>
  <path d="M1659.59,282.06c0-4.67.52-10.19,9.87-10.19h50.89c4.67,0,9.35,1.7,11.43,7.64,2.6,8.07,6.23,16.13,18.69,16.13,10.9,0,17.66-6.37,17.66-13.16,0-26.74-105.42-23.77-105.42-90.85,0-39.48,36.35-63.26,86.2-63.26,62.83,0,85.68,38.21,86.2,61.98,0,3.82-.52,8.92-9.87,8.92h-50.89c-6.75,0-9.35-3.4-10.9-8.07-2.08-5.09-6.75-8.07-14.54-8.07-8.83,0-14.02,4.25-14.02,10.19,0,25.9,105.41,22.92,105.41,91.27,0,39.91-35.83,66.23-87.76,66.23-61.79,0-92.43-36.94-92.95-68.77Z" class="cls-1"></path>
</svg>